<?xml version="1.0" standalone="no"?>
<!DOCTYPE svg PUBLIC "-//W3C//DTD SVG 20010904//EN"
 "http://www.w3.org/TR/2001/REC-SVG-20010904/DTD/svg10.dtd">
<svg version="1.0" xmlns="http://www.w3.org/2000/svg"
 width="1280.000000pt" height="1280.000000pt" viewBox="0 0 1280.000000 1280.000000"
 preserveAspectRatio="xMidYMid meet">
<metadata>
Created by potrace 1.14, written by Peter Selinger 2001-2017
</metadata>
<g transform="translate(0.000000,1280.000000) scale(0.100000,-0.100000)"
fill="#000000" stroke="none">
<path d="M4113 11694 c-250 -30 -446 -83 -668 -180 -476 -208 -816 -600 -890
-1023 -19 -108 -19 -305 0 -413 53 -304 227 -580 500 -793 107 -83 118 -90
845 -510 179 -104 388 -225 465 -270 77 -45 298 -173 490 -285 658 -382 651
-378 789 -503 254 -232 386 -513 386 -822 0 -385 -234 -747 -639 -990 -166
-99 -281 -145 -516 -205 -173 -44 -278 -54 -510 -47 -376 10 -644 69 -920 202
-157 76 -257 145 -361 249 -106 106 -180 214 -224 327 -58 150 -65 196 -65
412 l0 197 -127 0 -128 0 0 -64 c0 -151 48 -342 125 -498 217 -439 754 -784
1362 -875 184 -27 565 -25 738 5 344 60 640 176 885 350 189 133 374 348 465
537 93 194 109 280 103 555 -4 193 -5 196 -41 302 -74 218 -184 388 -361 556
-127 121 -220 185 -521 357 -93 54 -219 127 -280 163 -60 35 -139 81 -175 102
-185 107 -400 232 -525 305 -77 45 -183 107 -235 137 -363 210 -717 419 -780
461 -183 122 -330 274 -427 442 -47 80 -106 243 -123 336 -16 90 -14 291 4
375 76 356 358 679 758 869 151 71 248 107 383 138 185 43 349 60 520 52 373
-16 630 -78 919 -221 145 -72 230 -130 330 -225 229 -217 328 -474 310 -811
l-7 -138 131 0 c111 0 131 2 136 16 11 28 -13 214 -39 314 -61 228 -218 474
-415 647 -203 177 -483 326 -760 401 -267 73 -631 100 -907 66z"/>
<path d="M6530 11000 c0 -6 7 -10 15 -10 8 0 15 2 15 4 0 2 -7 6 -15 10 -8 3
-15 1 -15 -4z"/>
<path d="M7075 10998 c-11 -6 -22 -15 -25 -18 -3 -4 -114 -70 -246 -146 -281
-162 -291 -168 -277 -177 6 -4 22 2 37 14 14 11 72 46 128 78 240 134 428 245
428 253 0 11 -21 9 -45 -4z"/>
<path d="M6537 10293 c-4 -3 -6 -74 -6 -157 l2 -151 7 116 c4 63 11 134 15
157 6 39 -1 53 -18 35z"/>
<path d="M7087 10294 c-3 -3 -1 -18 4 -32 5 -15 13 -72 18 -127 l8 -100 2 117
c1 133 -6 167 -32 142z"/>
<path d="M6530 9950 c0 -6 105 -10 295 -10 190 0 295 4 295 10 0 6 -105 10
-295 10 -190 0 -295 -4 -295 -10z"/>
<path d="M7050 9390 c-13 -8 -125 -43 -432 -135 -48 -14 -90 -30 -93 -36 -10
-16 7 -11 232 57 120 37 248 76 286 87 66 20 88 38 45 36 -13 0 -30 -4 -38 -9z"/>
<path d="M10206 8943 c-9 -21 5 -34 56 -53 22 -8 50 -28 62 -43 21 -28 21 -29
21 -950 0 -990 -1 -1009 -52 -1172 -180 -575 -886 -1125 -1953 -1523 -238 -89
-513 -178 -750 -244 l-155 -43 -3 -42 c-3 -39 -2 -41 20 -36 224 53 749 223
1016 329 205 82 607 271 750 355 148 86 337 212 497 332 107 81 345 320 428
432 36 49 95 145 130 213 l64 123 6 -278 c9 -378 8 -3141 -1 -3224 -7 -56 -12
-70 -37 -92 -17 -14 -45 -28 -62 -32 -28 -5 -33 -10 -33 -36 l0 -29 253 2 252
3 0 25 c0 17 -6 26 -20 28 -43 8 -83 34 -99 65 -16 30 -17 236 -14 2908 3
2822 3 2877 22 2898 11 12 40 27 65 35 38 11 47 18 49 39 l3 27 -254 0 c-229
0 -256 -2 -261 -17z"/>
<path d="M7063 8869 c-29 -10 -121 -39 -205 -64 -269 -81 -318 -97 -318 -107
0 -12 4 -11 200 47 263 79 380 119 380 133 0 6 -1 12 -2 11 -2 0 -27 -9 -55
-20z"/>
<path d="M6790 8626 c0 -2 9 -6 20 -9 11 -3 18 -1 14 4 -5 9 -34 13 -34 5z"/>
<path d="M7038 8543 c7 -3 16 -2 19 1 4 3 -2 6 -13 5 -11 0 -14 -3 -6 -6z"/>
<path d="M7085 8530 c11 -5 27 -9 35 -9 9 0 8 4 -5 9 -11 5 -27 9 -35 9 -9 0
-8 -4 5 -9z"/>
<path d="M6525 8148 c4 -10 37 -12 128 -11 67 1 200 2 295 3 108 0 172 4 172
10 0 6 -107 10 -300 10 -235 0 -298 -3 -295 -12z"/>
<path d="M6810 8086 c0 -2 8 -10 18 -17 15 -13 16 -12 3 4 -13 16 -21 21 -21
13z"/>
<path d="M6886 7967 c3 -10 9 -15 12 -12 3 3 0 11 -7 18 -10 9 -11 8 -5 -6z"/>
<path d="M6524 7811 c-16 -17 45 -21 302 -21 228 0 294 3 294 13 0 9 -66 12
-296 12 -163 0 -297 -2 -300 -4z"/>
<path d="M6530 7420 c0 -6 7 -10 15 -10 8 0 15 2 15 4 0 2 -7 6 -15 10 -8 3
-15 1 -15 -4z"/>
<path d="M6820 7219 c-47 -22 -128 -59 -180 -81 -89 -38 -139 -68 -113 -68 12
0 57 19 158 65 217 100 212 99 327 99 79 1 108 4 108 14 0 9 -28 12 -107 11
-105 0 -111 -1 -193 -40z"/>
<path d="M7085 6720 c-10 -11 -57 -43 -104 -70 -47 -27 -99 -61 -115 -75 l-29
-25 -22 49 c-28 60 -79 94 -140 93 -74 -1 -137 -50 -134 -104 1 -21 2 -21 6
-3 18 75 139 111 209 63 45 -31 64 -68 65 -125 l0 -48 12 35 c9 27 27 44 82
77 151 91 177 109 187 126 14 27 4 31 -17 7z"/>
<path d="M6532 6415 l-2 -50 295 0 c229 0 295 3 295 13 0 9 -65 12 -289 12
l-290 0 -4 38 c-3 32 -4 30 -5 -13z"/>
<path d="M6730 5978 c-19 -5 -39 -14 -45 -19 -5 -6 4 -5 20 2 49 19 163 15
216 -8 162 -72 232 -265 149 -412 l-20 -36 20 23 c26 31 50 114 50 173 0 159
-140 291 -304 288 -28 0 -67 -5 -86 -11z"/>
<path d="M6553 5823 c-21 -52 -28 -163 -13 -216 32 -115 155 -208 273 -206 34
1 72 4 85 7 13 4 -14 7 -60 7 -73 0 -89 3 -131 28 -109 64 -159 146 -159 260
0 40 6 91 15 115 18 52 12 55 -10 5z"/>
<path d="M6960 5440 c-19 -11 -31 -19 -27 -20 11 0 67 29 67 35 0 7 -1 7 -40
-15z"/>
<path d="M6614 5034 c-16 -8 -36 -22 -44 -31 -13 -13 -11 -13 17 1 18 9 41 16
52 16 11 0 22 4 25 9 11 17 -21 20 -50 5z"/>
<path d="M6906 5013 c-15 -15 -53 -72 -84 -127 -77 -137 -113 -176 -162 -176
-42 0 -94 35 -105 71 -4 11 -9 18 -12 16 -2 -3 3 -19 12 -37 20 -38 70 -70
110 -70 55 0 87 31 160 155 84 143 107 172 144 180 45 10 96 -17 120 -62 11
-21 20 -34 21 -30 1 18 -31 66 -56 86 -41 32 -113 29 -148 -6z"/>
<path d="M6531 4904 c0 -11 3 -14 6 -6 3 7 2 16 -1 19 -3 4 -6 -2 -5 -13z"/>
<path d="M6532 4855 c0 -16 2 -22 5 -12 2 9 2 23 0 30 -3 6 -5 -1 -5 -18z"/>
<path d="M7096 4785 c-9 -26 -7 -32 5 -12 6 10 9 21 6 23 -2 3 -7 -2 -11 -11z"/>
<path d="M7050 4729 c-19 -10 -43 -19 -52 -19 -10 0 -18 -4 -18 -10 0 -18 34
-11 73 15 20 14 37 28 37 30 0 7 0 7 -40 -16z"/>
<path d="M6633 4313 c59 -2 154 -2 210 0 56 1 8 3 -108 3 -115 0 -161 -2 -102
-3z"/>
<path d="M7068 4300 c-3 -9 -55 -40 -380 -227 -81 -46 -150 -89 -154 -94 -14
-24 8 -17 67 19 35 22 164 97 287 167 122 71 222 132 222 137 0 11 -38 10 -42
-2z"/>
<path d="M7098 3953 c7 -3 16 -2 19 1 4 3 -2 6 -13 5 -11 0 -14 -3 -6 -6z"/>
<path d="M6537 3603 c-4 -3 -7 -86 -7 -184 l0 -177 295 0 c217 0 295 3 295 11
0 9 -67 11 -257 10 -142 -2 -273 0 -290 3 l-33 5 0 87 c1 90 13 204 25 235 7
17 -14 25 -28 10z"/>
<path d="M7084 3594 c6 -17 24 -164 29 -249 2 -27 4 9 5 80 0 152 -4 185 -25
185 -10 0 -13 -6 -9 -16z"/>
<path d="M6943 2855 c-37 -16 -73 -63 -140 -182 -51 -92 -89 -137 -122 -148
-30 -9 -92 24 -118 64 -28 42 -31 28 -3 -16 24 -39 67 -63 116 -63 46 0 85 39
138 136 93 168 136 212 194 199 32 -7 65 -33 81 -64 7 -12 15 -20 18 -17 11
11 -50 78 -83 92 -40 17 -41 17 -81 -1z"/>
<path d="M6583 2829 c-42 -38 -43 -49 -2 -15 17 14 38 26 47 26 9 0 24 5 32
10 12 7 8 10 -15 10 -20 0 -41 -10 -62 -31z"/>
<path d="M6531 2734 c0 -11 3 -14 6 -6 3 7 2 16 -1 19 -3 4 -6 -2 -5 -13z"/>
<path d="M6533 2675 c0 -22 2 -30 4 -17 2 12 2 30 0 40 -3 9 -5 -1 -4 -23z"/>
<path d="M7055 2549 c-16 -10 -40 -19 -52 -19 -13 0 -23 -4 -23 -10 0 -20 47
-9 80 20 40 34 38 37 -5 9z"/>
</g>
</svg>
